<svg width="2022" height="2411" xmlns="http://www.w3.org/2000/svg" xmlns:xlink="http://www.w3.org/1999/xlink" xml:space="preserve" overflow="hidden"><g transform="translate(-155 -18)"><g><rect x="163.5" y="22.4998" width="2006" height="2401" stroke="#042433" stroke-width="6.875" stroke-linecap="butt" stroke-linejoin="miter" stroke-miterlimit="8" stroke-opacity="1" fill="#F2F2F2" fill-opacity="1"/><path d="M258.5 153.667C258.5 135.902 272.902 121.5 290.668 121.5L931.333 121.5C949.098 121.5 963.5 135.902 963.5 153.667L963.5 282.332C963.5 300.098 949.098 314.5 931.333 314.5L290.668 314.5C272.902 314.5 258.5 300.098 258.5 282.332Z" stroke="#042433" stroke-width="6.875" stroke-linecap="butt" stroke-linejoin="miter" stroke-miterlimit="8" stroke-opacity="1" fill="#FFFFFF" fill-rule="evenodd" fill-opacity="1"/><text fill="#000000" fill-opacity="1" font-family="Malgun Gothic,Malgun Gothic_MSFontService,sans-serif" font-style="normal" font-variant="normal" font-weight="400" font-stretch="normal" font-size="64" text-anchor="start" direction="ltr" writing-mode="lr-tb" unicode-bidi="normal" text-decoration="none" transform="matrix(1 0 0 1 372.514 239)">해임</text><text fill="#000000" fill-opacity="1" font-family="Malgun Gothic,Malgun Gothic_MSFontService,sans-serif" font-style="normal" font-variant="normal" font-weight="400" font-stretch="normal" font-size="64" text-anchor="start" direction="ltr" writing-mode="lr-tb" unicode-bidi="normal" text-decoration="none" transform="matrix(1 0 0 1 514.024 239)">건의안</text><text fill="#000000" fill-opacity="1" font-family="Malgun Gothic,Malgun Gothic_MSFontService,sans-serif" font-style="normal" font-variant="normal" font-weight="400" font-stretch="normal" font-size="64" text-anchor="start" direction="ltr" writing-mode="lr-tb" unicode-bidi="normal" text-decoration="none" transform="matrix(1 0 0 1 719.701 239)">발의</text><path d="M258.5 486.668C258.5 468.902 272.902 454.5 290.668 454.5L931.333 454.5C949.098 454.5 963.5 468.902 963.5 486.668L963.5 615.333C963.5 633.098 949.098 647.5 931.333 647.5L290.668 647.5C272.902 647.5 258.5 633.098 258.5 615.333Z" stroke="#042433" stroke-width="6.875" stroke-linecap="butt" stroke-linejoin="miter" stroke-miterlimit="8" stroke-opacity="1" fill="#FBFF5E" fill-rule="evenodd" fill-opacity="1"/><text fill="#000000" fill-opacity="1" font-family="Malgun Gothic,Malgun Gothic_MSFontService,sans-serif" font-style="normal" font-variant="normal" font-weight="400" font-stretch="normal" font-size="64" text-anchor="start" direction="ltr" writing-mode="lr-tb" unicode-bidi="normal" text-decoration="none" transform="matrix(1 0 0 1 336.993 533)">운영</text><text fill="#000000" fill-opacity="1" font-family="Malgun Gothic,Malgun Gothic_MSFontService,sans-serif" font-style="normal" font-variant="normal" font-weight="400" font-stretch="normal" font-size="64" text-anchor="start" direction="ltr" writing-mode="lr-tb" unicode-bidi="normal" text-decoration="none" transform="matrix(1 0 0 1 478.504 533)">위원</text><text fill="#000000" fill-opacity="1" font-family="Aptos,Aptos_MSFontService,sans-serif" font-style="normal" font-variant="normal" font-weight="400" font-stretch="normal" font-size="64" text-anchor="start" direction="ltr" writing-mode="lr-tb" unicode-bidi="normal" text-decoration="none" transform="matrix(1 0 0 1 620.014 533)">50%</text><text fill="#000000" fill-opacity="1" font-family="Malgun Gothic,Malgun Gothic_MSFontService,sans-serif" font-style="normal" font-variant="normal" font-weight="400" font-stretch="normal" font-size="64" text-anchor="start" direction="ltr" writing-mode="lr-tb" unicode-bidi="normal" text-decoration="none" transform="matrix(1 0 0 1 755.222 533)">이상</text><text fill="#000000" fill-opacity="1" font-family="Malgun Gothic,Malgun Gothic_MSFontService,sans-serif" font-style="normal" font-variant="normal" font-weight="400" font-stretch="normal" font-size="64" text-anchor="start" direction="ltr" writing-mode="lr-tb" unicode-bidi="normal" text-decoration="none" transform="matrix(1 0 0 1 530.066 610)">동의</text><text fill="#000000" fill-opacity="1" font-family="Aptos,Aptos_MSFontService,sans-serif" font-style="normal" font-variant="normal" font-weight="400" font-stretch="normal" font-size="64" text-anchor="start" direction="ltr" writing-mode="lr-tb" unicode-bidi="normal" text-decoration="none" transform="matrix(1 0 0 1 658.399 610)">?</text><path d="M258.5 819.668C258.5 801.902 272.902 787.5 290.668 787.5L931.333 787.5C949.098 787.5 963.5 801.902 963.5 819.668L963.5 948.333C963.5 966.099 949.098 980.501 931.333 980.501L290.668 980.501C272.902 980.501 258.5 966.099 258.5 948.333Z" stroke="#042433" stroke-width="6.875" stroke-linecap="butt" stroke-linejoin="miter" stroke-miterlimit="8" stroke-opacity="1" fill="#FFFFFF" fill-rule="evenodd" fill-opacity="1"/><text fill="#000000" fill-opacity="1" font-family="Malgun Gothic,Malgun Gothic_MSFontService,sans-serif" font-style="normal" font-variant="normal" font-weight="400" font-stretch="normal" font-size="64" text-anchor="start" direction="ltr" writing-mode="lr-tb" unicode-bidi="normal" text-decoration="none" transform="matrix(1 0 0 1 333.842 905)">투표</text><text fill="#000000" fill-opacity="1" font-family="Malgun Gothic,Malgun Gothic_MSFontService,sans-serif" font-style="normal" font-variant="normal" font-weight="400" font-stretch="normal" font-size="64" text-anchor="start" direction="ltr" writing-mode="lr-tb" unicode-bidi="normal" text-decoration="none" transform="matrix(1 0 0 1 475.352 905)">일시</text><text fill="#000000" fill-opacity="1" font-family="Malgun Gothic,Malgun Gothic_MSFontService,sans-serif" font-style="normal" font-variant="normal" font-weight="400" font-stretch="normal" font-size="64" text-anchor="start" direction="ltr" writing-mode="lr-tb" unicode-bidi="normal" text-decoration="none" transform="matrix(1 0 0 1 616.863 905)">장소</text><text fill="#000000" fill-opacity="1" font-family="Malgun Gothic,Malgun Gothic_MSFontService,sans-serif" font-style="normal" font-variant="normal" font-weight="400" font-stretch="normal" font-size="64" text-anchor="start" direction="ltr" writing-mode="lr-tb" unicode-bidi="normal" text-decoration="none" transform="matrix(1 0 0 1 758.373 905)">결정</text><path d="M613.938 314.5 613.938 431.921 607.063 431.921 607.062 314.5ZM624.25 427.338 610.5 454.838 596.75 427.338Z" fill="#156082" fill-rule="nonzero" fill-opacity="1"/><path d="M613.938 647.5 613.938 764.921 607.063 764.921 607.062 647.5ZM624.25 760.338 610.5 787.838 596.75 760.338Z" fill="#156082" fill-rule="nonzero" fill-opacity="1"/><path d="M613.938 980.5 613.938 1104.57 607.063 1104.57 607.062 980.5ZM624.25 1099.98 610.5 1127.48 596.75 1099.98Z" fill="#156082" fill-rule="nonzero" fill-opacity="1"/><path d="M258.5 1159.67C258.5 1141.9 272.902 1127.5 290.668 1127.5L931.333 1127.5C949.098 1127.5 963.5 1141.9 963.5 1159.67L963.5 1288.33C963.5 1306.1 949.098 1320.5 931.333 1320.5L290.668 1320.5C272.902 1320.5 258.5 1306.1 258.5 1288.33Z" stroke="#042433" stroke-width="6.875" stroke-linecap="butt" stroke-linejoin="miter" stroke-miterlimit="8" stroke-opacity="1" fill="#FFFFFF" fill-rule="evenodd" fill-opacity="1"/><text fill="#000000" fill-opacity="1" font-family="Malgun Gothic,Malgun Gothic_MSFontService,sans-serif" font-style="normal" font-variant="normal" font-weight="400" font-stretch="normal" font-size="64" text-anchor="start" direction="ltr" writing-mode="lr-tb" unicode-bidi="normal" text-decoration="none" transform="matrix(1 0 0 1 546.108 1245)">토론</text><path d="M258.5 1499.67C258.5 1481.9 272.902 1467.5 290.668 1467.5L931.333 1467.5C949.098 1467.5 963.5 1481.9 963.5 1499.67L963.5 1628.33C963.5 1646.1 949.098 1660.5 931.333 1660.5L290.668 1660.5C272.902 1660.5 258.5 1646.1 258.5 1628.33Z" stroke="#042433" stroke-width="6.875" stroke-linecap="butt" stroke-linejoin="miter" stroke-miterlimit="8" stroke-opacity="1" fill="#FFFFFF" fill-rule="evenodd" fill-opacity="1"/><text fill="#000000" fill-opacity="1" font-family="Malgun Gothic,Malgun Gothic_MSFontService,sans-serif" font-style="normal" font-variant="normal" font-weight="400" font-stretch="normal" font-size="64" text-anchor="start" direction="ltr" writing-mode="lr-tb" unicode-bidi="normal" text-decoration="none" transform="matrix(1 0 0 1 546.108 1585)">투표</text><path d="M613.938 1320.5 613.938 1444.57 607.063 1444.57 607.062 1320.5ZM624.25 1439.98 610.5 1467.48 596.75 1439.98Z" fill="#156082" fill-rule="nonzero" fill-opacity="1"/><path d="M258.5 1839.67C258.5 1821.9 272.902 1807.5 290.668 1807.5L931.333 1807.5C949.098 1807.5 963.5 1821.9 963.5 1839.67L963.5 1968.33C963.5 1986.1 949.098 2000.5 931.333 2000.5L290.668 2000.5C272.902 2000.5 258.5 1986.1 258.5 1968.33Z" stroke="#042433" stroke-width="6.875" stroke-linecap="butt" stroke-linejoin="miter" stroke-miterlimit="8" stroke-opacity="1" fill="#FBFF5E" fill-rule="evenodd" fill-opacity="1"/><text fill="#000000" fill-opacity="1" font-family="Malgun Gothic,Malgun Gothic_MSFontService,sans-serif" font-style="normal" font-variant="normal" font-weight="400" font-stretch="normal" font-size="64" text-anchor="start" direction="ltr" writing-mode="lr-tb" unicode-bidi="normal" text-decoration="none" transform="matrix(1 0 0 1 475.352 1887)">운영</text><text fill="#000000" fill-opacity="1" font-family="Malgun Gothic,Malgun Gothic_MSFontService,sans-serif" font-style="normal" font-variant="normal" font-weight="400" font-stretch="normal" font-size="64" text-anchor="start" direction="ltr" writing-mode="lr-tb" unicode-bidi="normal" text-decoration="none" transform="matrix(1 0 0 1 616.863 1887)">위원</text><text fill="#000000" fill-opacity="1" font-family="Aptos,Aptos_MSFontService,sans-serif" font-style="normal" font-variant="normal" font-weight="400" font-stretch="normal" font-size="64" text-anchor="start" direction="ltr" writing-mode="lr-tb" unicode-bidi="normal" text-decoration="none" transform="matrix(1 0 0 1 347.592 1964)">3</text><text fill="#000000" fill-opacity="1" font-family="Malgun Gothic,Malgun Gothic_MSFontService,sans-serif" font-style="normal" font-variant="normal" font-weight="400" font-stretch="normal" font-size="64" text-anchor="start" direction="ltr" writing-mode="lr-tb" unicode-bidi="normal" text-decoration="none" transform="matrix(1 0 0 1 381.967 1964)">분의</text><text fill="#000000" fill-opacity="1" font-family="Aptos,Aptos_MSFontService,sans-serif" font-style="normal" font-variant="normal" font-weight="400" font-stretch="normal" font-size="64" text-anchor="start" direction="ltr" writing-mode="lr-tb" unicode-bidi="normal" text-decoration="none" transform="matrix(1 0 0 1 523.477 1964)">2</text><text fill="#000000" fill-opacity="1" font-family="Malgun Gothic,Malgun Gothic_MSFontService,sans-serif" font-style="normal" font-variant="normal" font-weight="400" font-stretch="normal" font-size="64" text-anchor="start" direction="ltr" writing-mode="lr-tb" unicode-bidi="normal" text-decoration="none" transform="matrix(1 0 0 1 571.03 1964)">이상</text><text fill="#000000" fill-opacity="1" font-family="Malgun Gothic,Malgun Gothic_MSFontService,sans-serif" font-style="normal" font-variant="normal" font-weight="400" font-stretch="normal" font-size="64" text-anchor="start" direction="ltr" writing-mode="lr-tb" unicode-bidi="normal" text-decoration="none" transform="matrix(1 0 0 1 712.54 1964)">찬성</text><text fill="#000000" fill-opacity="1" font-family="Aptos,Aptos_MSFontService,sans-serif" font-style="normal" font-variant="normal" font-weight="400" font-stretch="normal" font-size="64" text-anchor="start" direction="ltr" writing-mode="lr-tb" unicode-bidi="normal" text-decoration="none" transform="matrix(1 0 0 1 840.873 1964)">?</text><path d="M613.938 1660.5 613.938 1784.57 607.063 1784.57 607.062 1660.5ZM624.25 1779.98 610.5 1807.48 596.75 1779.98Z" fill="#156082" fill-rule="nonzero" fill-opacity="1"/><path d="M258.5 2179.67C258.5 2161.9 272.902 2147.5 290.668 2147.5L931.333 2147.5C949.098 2147.5 963.5 2161.9 963.5 2179.67L963.5 2308.33C963.5 2326.1 949.098 2340.5 931.333 2340.5L290.668 2340.5C272.902 2340.5 258.5 2326.1 258.5 2308.33Z" stroke="#042433" stroke-width="6.875" stroke-linecap="butt" stroke-linejoin="miter" stroke-miterlimit="8" stroke-opacity="1" fill="#FFFFFF" fill-rule="evenodd" fill-opacity="1"/><text fill="#000000" fill-opacity="1" font-family="Malgun Gothic,Malgun Gothic_MSFontService,sans-serif" font-style="normal" font-variant="normal" font-weight="400" font-stretch="normal" font-size="64" text-anchor="start" direction="ltr" writing-mode="lr-tb" unicode-bidi="normal" text-decoration="none" transform="matrix(1 0 0 1 475.352 2265)">해임</text><text fill="#000000" fill-opacity="1" font-family="Malgun Gothic,Malgun Gothic_MSFontService,sans-serif" font-style="normal" font-variant="normal" font-weight="400" font-stretch="normal" font-size="64" text-anchor="start" direction="ltr" writing-mode="lr-tb" unicode-bidi="normal" text-decoration="none" transform="matrix(1 0 0 1 616.863 2265)">결정</text><path d="M613.938 2000.5 613.938 2124.57 607.063 2124.57 607.062 2000.5ZM624.25 2119.98 610.5 2147.48 596.75 2119.98Z" fill="#156082" fill-rule="nonzero" fill-opacity="1"/><path d="M1352.5 486.668C1352.5 468.902 1366.9 454.5 1384.67 454.5L2025.33 454.5C2043.1 454.5 2057.5 468.902 2057.5 486.668L2057.5 615.333C2057.5 633.098 2043.1 647.5 2025.33 647.5L1384.67 647.5C1366.9 647.5 1352.5 633.098 1352.5 615.333Z" stroke="#042433" stroke-width="6.875" stroke-linecap="butt" stroke-linejoin="miter" stroke-miterlimit="8" stroke-opacity="1" fill="#FFFFFF" fill-rule="evenodd" fill-opacity="1"/><text fill="#000000" fill-opacity="1" font-family="Malgun Gothic,Malgun Gothic_MSFontService,sans-serif" font-style="normal" font-variant="normal" font-weight="400" font-stretch="normal" font-size="64" text-anchor="start" direction="ltr" writing-mode="lr-tb" unicode-bidi="normal" text-decoration="none" transform="matrix(1 0 0 1 1640.08 572)">종료</text><path d="M963.5 547.062 1329.35 547.063 1329.35 553.938 963.5 553.937ZM1324.77 536.75 1352.27 550.5 1324.77 564.25Z" fill="#156082" fill-rule="nonzero" fill-opacity="1"/><text fill="#000000" fill-opacity="1" font-family="Malgun Gothic,Malgun Gothic_MSFontService,sans-serif" font-style="normal" font-variant="normal" font-weight="400" font-stretch="normal" font-size="55" text-anchor="start" direction="ltr" writing-mode="lr-tb" unicode-bidi="normal" text-decoration="none" transform="matrix(1 0 0 1 1117.71 525)">아니오</text><path d="M1352.5 1839.67C1352.5 1821.9 1366.9 1807.5 1384.67 1807.5L2025.33 1807.5C2043.1 1807.5 2057.5 1821.9 2057.5 1839.67L2057.5 1968.33C2057.5 1986.1 2043.1 2000.5 2025.33 2000.5L1384.67 2000.5C1366.9 2000.5 1352.5 1986.1 1352.5 1968.33Z" stroke="#042433" stroke-width="6.875" stroke-linecap="butt" stroke-linejoin="miter" stroke-miterlimit="8" stroke-opacity="1" fill="#FFFFFF" fill-rule="evenodd" fill-opacity="1"/><text fill="#000000" fill-opacity="1" font-family="Malgun Gothic,Malgun Gothic_MSFontService,sans-serif" font-style="normal" font-variant="normal" font-weight="400" font-stretch="normal" font-size="64" text-anchor="start" direction="ltr" writing-mode="lr-tb" unicode-bidi="normal" text-decoration="none" transform="matrix(1 0 0 1 1569.32 1925)">해임</text><text fill="#000000" fill-opacity="1" font-family="Malgun Gothic,Malgun Gothic_MSFontService,sans-serif" font-style="normal" font-variant="normal" font-weight="400" font-stretch="normal" font-size="64" text-anchor="start" direction="ltr" writing-mode="lr-tb" unicode-bidi="normal" text-decoration="none" transform="matrix(1 0 0 1 1710.83 1925)">기각</text><path d="M963.501 1901.06 1329.35 1901.19 1329.35 1908.06 963.499 1907.94ZM1324.77 1890.88 1352.27 1904.63 1324.76 1918.38Z" fill="#156082" fill-rule="nonzero" fill-opacity="1"/><text fill="#000000" fill-opacity="1" font-family="Malgun Gothic,Malgun Gothic_MSFontService,sans-serif" font-style="normal" font-variant="normal" font-weight="400" font-stretch="normal" font-size="55" text-anchor="start" direction="ltr" writing-mode="lr-tb" unicode-bidi="normal" text-decoration="none" transform="matrix(1 0 0 1 1117.71 1879)">아니오</text><text fill="#000000" fill-opacity="1" font-family="Malgun Gothic,Malgun Gothic_MSFontService,sans-serif" font-style="normal" font-variant="normal" font-weight="400" font-stretch="normal" font-size="55" text-anchor="start" direction="ltr" writing-mode="lr-tb" unicode-bidi="normal" text-decoration="none" transform="matrix(1 0 0 1 682.226 738)">예</text><text fill="#000000" fill-opacity="1" font-family="Malgun Gothic,Malgun Gothic_MSFontService,sans-serif" font-style="normal" font-variant="normal" font-weight="400" font-stretch="normal" font-size="55" text-anchor="start" direction="ltr" writing-mode="lr-tb" unicode-bidi="normal" text-decoration="none" transform="matrix(1 0 0 1 667.976 2092)">예</text></g></g></svg>