<svg width="2058" height="1197" xmlns="http://www.w3.org/2000/svg" xmlns:xlink="http://www.w3.org/1999/xlink" xml:space="preserve" overflow="hidden"><g transform="translate(-146 -132)"><g><rect x="152.5" y="137.5" width="2048" height="1184" stroke="#042433" stroke-width="6.875" stroke-linecap="butt" stroke-linejoin="miter" stroke-miterlimit="8" stroke-opacity="1" fill="#F2F2F2" fill-opacity="1"/><text fill="#000000" fill-opacity="1" font-family="Aptos,Aptos_MSFontService,sans-serif" font-style="normal" font-variant="normal" font-weight="700" font-stretch="normal" font-size="83" text-anchor="start" direction="ltr" writing-mode="lr-tb" unicode-bidi="normal" text-decoration="none" transform="matrix(1 0 0 1 663.621 287)">1.</text><text fill="#000000" fill-opacity="1" font-family="Malgun Gothic,Malgun Gothic_MSFontService,sans-serif" font-style="normal" font-variant="normal" font-weight="700" font-stretch="normal" font-size="83" text-anchor="start" direction="ltr" writing-mode="lr-tb" unicode-bidi="normal" text-decoration="none" transform="matrix(1 0 0 1 748.986 287)">탄핵</text><text fill="#000000" fill-opacity="1" font-family="Malgun Gothic,Malgun Gothic_MSFontService,sans-serif" font-style="normal" font-variant="normal" font-weight="700" font-stretch="normal" font-size="83" text-anchor="start" direction="ltr" writing-mode="lr-tb" unicode-bidi="normal" text-decoration="none" transform="matrix(1 0 0 1 930.601 287)">발의</text><text fill="#000000" fill-opacity="1" font-family="Malgun Gothic,Malgun Gothic_MSFontService,sans-serif" font-style="normal" font-variant="normal" font-weight="700" font-stretch="normal" font-size="83" text-anchor="start" direction="ltr" writing-mode="lr-tb" unicode-bidi="normal" text-decoration="none" transform="matrix(1 0 0 1 1112.22 287)">단계</text><text fill="#000000" fill-opacity="1" font-family="Aptos,Aptos_MSFontService,sans-serif" font-style="normal" font-variant="normal" font-weight="700" font-stretch="normal" font-size="83" text-anchor="start" direction="ltr" writing-mode="lr-tb" unicode-bidi="normal" text-decoration="none" transform="matrix(1 0 0 1 1293.83 287)">(</text><text fill="#000000" fill-opacity="1" font-family="Malgun Gothic,Malgun Gothic_MSFontService,sans-serif" font-style="normal" font-variant="normal" font-weight="700" font-stretch="normal" font-size="83" text-anchor="start" direction="ltr" writing-mode="lr-tb" unicode-bidi="normal" text-decoration="none" transform="matrix(1 0 0 1 1317.89 287)">운영</text><text fill="#000000" fill-opacity="1" font-family="Malgun Gothic,Malgun Gothic_MSFontService,sans-serif" font-style="normal" font-variant="normal" font-weight="700" font-stretch="normal" font-size="83" text-anchor="start" direction="ltr" writing-mode="lr-tb" unicode-bidi="normal" text-decoration="none" transform="matrix(1 0 0 1 1499.51 287)">위원</text><text fill="#000000" fill-opacity="1" font-family="Aptos,Aptos_MSFontService,sans-serif" font-style="normal" font-variant="normal" font-weight="700" font-stretch="normal" font-size="83" text-anchor="start" direction="ltr" writing-mode="lr-tb" unicode-bidi="normal" text-decoration="none" transform="matrix(1 0 0 1 1664.51 287)">)</text><path d="M279.5 398.668C279.5 380.902 293.902 366.5 311.668 366.5L952.332 366.5C970.098 366.5 984.5 380.902 984.5 398.668L984.5 527.333C984.5 545.098 970.098 559.5 952.332 559.5L311.668 559.5C293.902 559.5 279.5 545.098 279.5 527.333Z" stroke="#042433" stroke-width="6.875" stroke-linecap="butt" stroke-linejoin="miter" stroke-miterlimit="8" stroke-opacity="1" fill="#FFFFFF" fill-rule="evenodd" fill-opacity="1"/><text fill="#000000" fill-opacity="1" font-family="Malgun Gothic,Malgun Gothic_MSFontService,sans-serif" font-style="normal" font-variant="normal" font-weight="400" font-stretch="normal" font-size="64" text-anchor="start" direction="ltr" writing-mode="lr-tb" unicode-bidi="normal" text-decoration="none" transform="matrix(1 0 0 1 464.365 484)">탄핵안</text><text fill="#000000" fill-opacity="1" font-family="Malgun Gothic,Malgun Gothic_MSFontService,sans-serif" font-style="normal" font-variant="normal" font-weight="400" font-stretch="normal" font-size="64" text-anchor="start" direction="ltr" writing-mode="lr-tb" unicode-bidi="normal" text-decoration="none" transform="matrix(1 0 0 1 670.042 484)">발의</text><path d="M279.5 731.668C279.5 713.902 293.902 699.5 311.668 699.5L952.332 699.5C970.098 699.5 984.5 713.902 984.5 731.668L984.5 860.333C984.5 878.099 970.098 892.501 952.332 892.501L311.668 892.501C293.902 892.501 279.5 878.099 279.5 860.333Z" stroke="#042433" stroke-width="6.875" stroke-linecap="butt" stroke-linejoin="miter" stroke-miterlimit="8" stroke-opacity="1" fill="#FBFF5E" fill-rule="evenodd" fill-opacity="1"/><text fill="#000000" fill-opacity="1" font-family="Malgun Gothic,Malgun Gothic_MSFontService,sans-serif" font-style="normal" font-variant="normal" font-weight="400" font-stretch="normal" font-size="64" text-anchor="start" direction="ltr" writing-mode="lr-tb" unicode-bidi="normal" text-decoration="none" transform="matrix(1 0 0 1 329.443 779)">민서네</text><text fill="#000000" fill-opacity="1" font-family="Malgun Gothic,Malgun Gothic_MSFontService,sans-serif" font-style="normal" font-variant="normal" font-weight="400" font-stretch="normal" font-size="64" text-anchor="start" direction="ltr" writing-mode="lr-tb" unicode-bidi="normal" text-decoration="none" transform="matrix(1 0 0 1 535.12 779)">전체</text><text fill="#000000" fill-opacity="1" font-family="Malgun Gothic,Malgun Gothic_MSFontService,sans-serif" font-style="normal" font-variant="normal" font-weight="400" font-stretch="normal" font-size="64" text-anchor="start" direction="ltr" writing-mode="lr-tb" unicode-bidi="normal" text-decoration="none" transform="matrix(1 0 0 1 676.63 779)">위원들의</text><text fill="#000000" fill-opacity="1" font-family="Aptos,Aptos_MSFontService,sans-serif" font-style="normal" font-variant="normal" font-weight="400" font-stretch="normal" font-size="64" text-anchor="start" direction="ltr" writing-mode="lr-tb" unicode-bidi="normal" text-decoration="none" transform="matrix(1 0 0 1 412.791 856)">20%</text><text fill="#000000" fill-opacity="1" font-family="Malgun Gothic,Malgun Gothic_MSFontService,sans-serif" font-style="normal" font-variant="normal" font-weight="400" font-stretch="normal" font-size="64" text-anchor="start" direction="ltr" writing-mode="lr-tb" unicode-bidi="normal" text-decoration="none" transform="matrix(1 0 0 1 547.999 856)">이상</text><text fill="#000000" fill-opacity="1" font-family="Malgun Gothic,Malgun Gothic_MSFontService,sans-serif" font-style="normal" font-variant="normal" font-weight="400" font-stretch="normal" font-size="64" text-anchor="start" direction="ltr" writing-mode="lr-tb" unicode-bidi="normal" text-decoration="none" transform="matrix(1 0 0 1 689.51 856)">동의</text><text fill="#000000" fill-opacity="1" font-family="Aptos,Aptos_MSFontService,sans-serif" font-style="normal" font-variant="normal" font-weight="400" font-stretch="normal" font-size="64" text-anchor="start" direction="ltr" writing-mode="lr-tb" unicode-bidi="normal" text-decoration="none" transform="matrix(1 0 0 1 817.843 856)">?</text><path d="M279.5 1065.67C279.5 1047.9 293.902 1033.5 311.668 1033.5L952.332 1033.5C970.098 1033.5 984.5 1047.9 984.5 1065.67L984.5 1194.33C984.5 1212.1 970.098 1226.5 952.332 1226.5L311.668 1226.5C293.902 1226.5 279.5 1212.1 279.5 1194.33Z" stroke="#042433" stroke-width="6.875" stroke-linecap="butt" stroke-linejoin="miter" stroke-miterlimit="8" stroke-opacity="1" fill="#FFFFFF" fill-rule="evenodd" fill-opacity="1"/><text fill="#000000" fill-opacity="1" font-family="Malgun Gothic,Malgun Gothic_MSFontService,sans-serif" font-style="normal" font-variant="normal" font-weight="400" font-stretch="normal" font-size="64" text-anchor="start" direction="ltr" writing-mode="lr-tb" unicode-bidi="normal" text-decoration="none" transform="matrix(1 0 0 1 464.365 1151)">탄핵안</text><text fill="#000000" fill-opacity="1" font-family="Malgun Gothic,Malgun Gothic_MSFontService,sans-serif" font-style="normal" font-variant="normal" font-weight="400" font-stretch="normal" font-size="64" text-anchor="start" direction="ltr" writing-mode="lr-tb" unicode-bidi="normal" text-decoration="none" transform="matrix(1 0 0 1 670.042 1151)">상정</text><path d="M634.937 559.5 634.938 676.921 628.063 676.921 628.062 559.5ZM645.25 672.338 631.5 699.838 617.75 672.338Z" fill="#156082" fill-rule="nonzero" fill-opacity="1"/><path d="M634.937 892.5 634.938 1009.92 628.063 1009.92 628.062 892.5ZM645.25 1005.34 631.5 1032.84 617.75 1005.34Z" fill="#156082" fill-rule="nonzero" fill-opacity="1"/><path d="M1368.5 730.668C1368.5 712.902 1382.9 698.5 1400.67 698.5L2041.33 698.5C2059.1 698.5 2073.5 712.902 2073.5 730.668L2073.5 859.333C2073.5 877.099 2059.1 891.501 2041.33 891.501L1400.67 891.501C1382.9 891.501 1368.5 877.099 1368.5 859.333Z" stroke="#042433" stroke-width="6.875" stroke-linecap="butt" stroke-linejoin="miter" stroke-miterlimit="8" stroke-opacity="1" fill="#FFFFFF" fill-rule="evenodd" fill-opacity="1"/><text fill="#000000" fill-opacity="1" font-family="Malgun Gothic,Malgun Gothic_MSFontService,sans-serif" font-style="normal" font-variant="normal" font-weight="400" font-stretch="normal" font-size="64" text-anchor="start" direction="ltr" writing-mode="lr-tb" unicode-bidi="normal" text-decoration="none" transform="matrix(1 0 0 1 1553.82 816)">탄핵안</text><text fill="#000000" fill-opacity="1" font-family="Malgun Gothic,Malgun Gothic_MSFontService,sans-serif" font-style="normal" font-variant="normal" font-weight="400" font-stretch="normal" font-size="64" text-anchor="start" direction="ltr" writing-mode="lr-tb" unicode-bidi="normal" text-decoration="none" transform="matrix(1 0 0 1 1759.49 816)">기각</text><path d="M0.0104024-3.43748 361.34-2.34404 361.319 4.53093-0.0104024 3.43748ZM356.788-12.6704 384.246 1.1628 356.705 14.8295Z" fill="#156082" fill-rule="nonzero" fill-opacity="1" transform="matrix(1 0 0 -1 984.5 796.663)"/><text fill="#000000" fill-opacity="1" font-family="Malgun Gothic,Malgun Gothic_MSFontService,sans-serif" font-style="normal" font-variant="normal" font-weight="400" font-stretch="normal" font-size="55" text-anchor="start" direction="ltr" writing-mode="lr-tb" unicode-bidi="normal" text-decoration="none" transform="matrix(1 0 0 1 680.72 982)">예</text><text fill="#000000" fill-opacity="1" font-family="Malgun Gothic,Malgun Gothic_MSFontService,sans-serif" font-style="normal" font-variant="normal" font-weight="400" font-stretch="normal" font-size="55" text-anchor="start" direction="ltr" writing-mode="lr-tb" unicode-bidi="normal" text-decoration="none" transform="matrix(1 0 0 1 1134.28 765)">아니오</text></g></g></svg>