<svg width="985" height="2158" xmlns="http://www.w3.org/2000/svg" xmlns:xlink="http://www.w3.org/1999/xlink" xml:space="preserve" overflow="hidden"><g transform="translate(-128 -87)"><g><rect x="132.5" y="91.4999" width="977" height="2150" stroke="#042433" stroke-width="6.875" stroke-linecap="butt" stroke-linejoin="miter" stroke-miterlimit="8" stroke-opacity="1" fill="#F2F2F2" fill-opacity="1"/><path d="M258.5 266.668C258.5 248.902 272.902 234.5 290.668 234.5L931.333 234.5C949.098 234.5 963.5 248.902 963.5 266.668L963.5 395.333C963.5 413.098 949.098 427.5 931.333 427.5L290.668 427.5C272.902 427.5 258.5 413.098 258.5 395.333Z" stroke="#042433" stroke-width="6.875" stroke-linecap="butt" stroke-linejoin="miter" stroke-miterlimit="8" stroke-opacity="1" fill="#FFFFFF" fill-rule="evenodd" fill-opacity="1"/><text fill="#000000" fill-opacity="1" font-family="Malgun Gothic,Malgun Gothic_MSFontService,sans-serif" font-style="normal" font-variant="normal" font-weight="400" font-stretch="normal" font-size="64" text-anchor="start" direction="ltr" writing-mode="lr-tb" unicode-bidi="normal" text-decoration="none" transform="matrix(1 0 0 1 443.269 352)">위원장</text><text fill="#000000" fill-opacity="1" font-family="Malgun Gothic,Malgun Gothic_MSFontService,sans-serif" font-style="normal" font-variant="normal" font-weight="400" font-stretch="normal" font-size="64" text-anchor="start" direction="ltr" writing-mode="lr-tb" unicode-bidi="normal" text-decoration="none" transform="matrix(1 0 0 1 648.946 352)">공석</text><path d="M258.5 599.668C258.5 581.902 272.902 567.5 290.668 567.5L931.333 567.5C949.098 567.5 963.5 581.902 963.5 599.668L963.5 728.333C963.5 746.099 949.098 760.501 931.333 760.501L290.668 760.501C272.902 760.501 258.5 746.099 258.5 728.333Z" stroke="#042433" stroke-width="6.875" stroke-linecap="butt" stroke-linejoin="miter" stroke-miterlimit="8" stroke-opacity="1" fill="#FFFFFF" fill-rule="evenodd" fill-opacity="1"/><text fill="#000000" fill-opacity="1" font-family="Malgun Gothic,Malgun Gothic_MSFontService,sans-serif" font-style="normal" font-variant="normal" font-weight="400" font-stretch="normal" font-size="64" text-anchor="start" direction="ltr" writing-mode="lr-tb" unicode-bidi="normal" text-decoration="none" transform="matrix(1 0 0 1 301.759 685)">비상</text><text fill="#000000" fill-opacity="1" font-family="Malgun Gothic,Malgun Gothic_MSFontService,sans-serif" font-style="normal" font-variant="normal" font-weight="400" font-stretch="normal" font-size="64" text-anchor="start" direction="ltr" writing-mode="lr-tb" unicode-bidi="normal" text-decoration="none" transform="matrix(1 0 0 1 443.269 685)">대책</text><text fill="#000000" fill-opacity="1" font-family="Malgun Gothic,Malgun Gothic_MSFontService,sans-serif" font-style="normal" font-variant="normal" font-weight="400" font-stretch="normal" font-size="64" text-anchor="start" direction="ltr" writing-mode="lr-tb" unicode-bidi="normal" text-decoration="none" transform="matrix(1 0 0 1 584.78 685)">위원회</text><text fill="#000000" fill-opacity="1" font-family="Malgun Gothic,Malgun Gothic_MSFontService,sans-serif" font-style="normal" font-variant="normal" font-weight="400" font-stretch="normal" font-size="64" text-anchor="start" direction="ltr" writing-mode="lr-tb" unicode-bidi="normal" text-decoration="none" transform="matrix(1 0 0 1 790.457 685)">구성</text><path d="M258.5 933.668C258.5 915.902 272.902 901.5 290.668 901.5L931.333 901.5C949.098 901.5 963.5 915.902 963.5 933.668L963.5 1062.33C963.5 1080.1 949.098 1094.5 931.333 1094.5L290.668 1094.5C272.902 1094.5 258.5 1080.1 258.5 1062.33Z" stroke="#042433" stroke-width="6.875" stroke-linecap="butt" stroke-linejoin="miter" stroke-miterlimit="8" stroke-opacity="1" fill="#FFFFFF" fill-rule="evenodd" fill-opacity="1"/><text fill="#000000" fill-opacity="1" font-family="Malgun Gothic,Malgun Gothic_MSFontService,sans-serif" font-style="normal" font-variant="normal" font-weight="400" font-stretch="normal" font-size="64" text-anchor="start" direction="ltr" writing-mode="lr-tb" unicode-bidi="normal" text-decoration="none" transform="matrix(1 0 0 1 387.41 1019)">후보</text><text fill="#000000" fill-opacity="1" font-family="Malgun Gothic,Malgun Gothic_MSFontService,sans-serif" font-style="normal" font-variant="normal" font-weight="400" font-stretch="normal" font-size="64" text-anchor="start" direction="ltr" writing-mode="lr-tb" unicode-bidi="normal" text-decoration="none" transform="matrix(1 0 0 1 528.92 1019)">모집</text><text fill="#000000" fill-opacity="1" font-family="Aptos,Aptos_MSFontService,sans-serif" font-style="normal" font-variant="normal" font-weight="400" font-stretch="normal" font-size="64" text-anchor="start" direction="ltr" writing-mode="lr-tb" unicode-bidi="normal" text-decoration="none" transform="matrix(1 0 0 1 670.431 1019)">1</text><text fill="#000000" fill-opacity="1" font-family="Malgun Gothic,Malgun Gothic_MSFontService,sans-serif" font-style="normal" font-variant="normal" font-weight="400" font-stretch="normal" font-size="64" text-anchor="start" direction="ltr" writing-mode="lr-tb" unicode-bidi="normal" text-decoration="none" transform="matrix(1 0 0 1 704.806 1019)">주일</text><path d="M613.938 427.5 613.938 544.921 607.063 544.921 607.062 427.5ZM624.25 540.338 610.5 567.838 596.75 540.338Z" fill="#156082" fill-rule="nonzero" fill-opacity="1"/><path d="M613.938 760.5 613.938 877.921 607.063 877.921 607.062 760.5ZM624.25 873.338 610.5 900.838 596.75 873.338Z" fill="#156082" fill-rule="nonzero" fill-opacity="1"/><path d="M613.938 1094.5 613.938 1218.57 607.063 1218.57 607.062 1094.5ZM624.25 1213.98 610.5 1241.48 596.75 1213.98Z" fill="#156082" fill-rule="nonzero" fill-opacity="1"/><path d="M258.5 1273.67C258.5 1255.9 272.902 1241.5 290.668 1241.5L931.333 1241.5C949.098 1241.5 963.5 1255.9 963.5 1273.67L963.5 1402.33C963.5 1420.1 949.098 1434.5 931.333 1434.5L290.668 1434.5C272.902 1434.5 258.5 1420.1 258.5 1402.33Z" stroke="#042433" stroke-width="6.875" stroke-linecap="butt" stroke-linejoin="miter" stroke-miterlimit="8" stroke-opacity="1" fill="#FFFFFF" fill-rule="evenodd" fill-opacity="1"/><text fill="#000000" fill-opacity="1" font-family="Malgun Gothic,Malgun Gothic_MSFontService,sans-serif" font-style="normal" font-variant="normal" font-weight="400" font-stretch="normal" font-size="64" text-anchor="start" direction="ltr" writing-mode="lr-tb" unicode-bidi="normal" text-decoration="none" transform="matrix(1 0 0 1 404.597 1320)">후보자</text><text fill="#000000" fill-opacity="1" font-family="Malgun Gothic,Malgun Gothic_MSFontService,sans-serif" font-style="normal" font-variant="normal" font-weight="400" font-stretch="normal" font-size="64" text-anchor="start" direction="ltr" writing-mode="lr-tb" unicode-bidi="normal" text-decoration="none" transform="matrix(1 0 0 1 610.274 1320)">토론</text><text fill="#000000" fill-opacity="1" font-family="Malgun Gothic,Malgun Gothic_MSFontService,sans-serif" font-style="normal" font-variant="normal" font-weight="400" font-stretch="normal" font-size="64" text-anchor="start" direction="ltr" writing-mode="lr-tb" unicode-bidi="normal" text-decoration="none" transform="matrix(1 0 0 1 751.785 1320)">및</text><text fill="#000000" fill-opacity="1" font-family="Malgun Gothic,Malgun Gothic_MSFontService,sans-serif" font-style="normal" font-variant="normal" font-weight="400" font-stretch="normal" font-size="64" text-anchor="start" direction="ltr" writing-mode="lr-tb" unicode-bidi="normal" text-decoration="none" transform="matrix(1 0 0 1 387.41 1397)">선거</text><text fill="#000000" fill-opacity="1" font-family="Malgun Gothic,Malgun Gothic_MSFontService,sans-serif" font-style="normal" font-variant="normal" font-weight="400" font-stretch="normal" font-size="64" text-anchor="start" direction="ltr" writing-mode="lr-tb" unicode-bidi="normal" text-decoration="none" transform="matrix(1 0 0 1 528.92 1397)">운동</text><text fill="#000000" fill-opacity="1" font-family="Aptos,Aptos_MSFontService,sans-serif" font-style="normal" font-variant="normal" font-weight="400" font-stretch="normal" font-size="64" text-anchor="start" direction="ltr" writing-mode="lr-tb" unicode-bidi="normal" text-decoration="none" transform="matrix(1 0 0 1 670.431 1397)">1</text><text fill="#000000" fill-opacity="1" font-family="Malgun Gothic,Malgun Gothic_MSFontService,sans-serif" font-style="normal" font-variant="normal" font-weight="400" font-stretch="normal" font-size="64" text-anchor="start" direction="ltr" writing-mode="lr-tb" unicode-bidi="normal" text-decoration="none" transform="matrix(1 0 0 1 704.806 1397)">주일</text><path d="M258.5 1613.67C258.5 1595.9 272.902 1581.5 290.668 1581.5L931.333 1581.5C949.098 1581.5 963.5 1595.9 963.5 1613.67L963.5 1742.33C963.5 1760.1 949.098 1774.5 931.333 1774.5L290.668 1774.5C272.902 1774.5 258.5 1760.1 258.5 1742.33Z" stroke="#042433" stroke-width="6.875" stroke-linecap="butt" stroke-linejoin="miter" stroke-miterlimit="8" stroke-opacity="1" fill="#FFFFFF" fill-rule="evenodd" fill-opacity="1"/><text fill="#000000" fill-opacity="1" font-family="Aptos,Aptos_MSFontService,sans-serif" font-style="normal" font-variant="normal" font-weight="400" font-stretch="normal" font-size="64" text-anchor="start" direction="ltr" writing-mode="lr-tb" unicode-bidi="normal" text-decoration="none" transform="matrix(1 0 0 1 458.165 1699)">3</text><text fill="#000000" fill-opacity="1" font-family="Malgun Gothic,Malgun Gothic_MSFontService,sans-serif" font-style="normal" font-variant="normal" font-weight="400" font-stretch="normal" font-size="64" text-anchor="start" direction="ltr" writing-mode="lr-tb" unicode-bidi="normal" text-decoration="none" transform="matrix(1 0 0 1 492.54 1699)">일간</text><text fill="#000000" fill-opacity="1" font-family="Malgun Gothic,Malgun Gothic_MSFontService,sans-serif" font-style="normal" font-variant="normal" font-weight="400" font-stretch="normal" font-size="64" text-anchor="start" direction="ltr" writing-mode="lr-tb" unicode-bidi="normal" text-decoration="none" transform="matrix(1 0 0 1 634.05 1699)">투표</text><path d="M613.938 1434.5 613.938 1558.57 607.063 1558.57 607.062 1434.5ZM624.25 1553.98 610.5 1581.48 596.75 1553.98Z" fill="#156082" fill-rule="nonzero" fill-opacity="1"/><path d="M258.5 1953.67C258.5 1935.9 272.902 1921.5 290.668 1921.5L931.333 1921.5C949.098 1921.5 963.5 1935.9 963.5 1953.67L963.5 2082.33C963.5 2100.1 949.098 2114.5 931.333 2114.5L290.668 2114.5C272.902 2114.5 258.5 2100.1 258.5 2082.33Z" stroke="#042433" stroke-width="6.875" stroke-linecap="butt" stroke-linejoin="miter" stroke-miterlimit="8" stroke-opacity="1" fill="#FFFFFF" fill-rule="evenodd" fill-opacity="1"/><text fill="#000000" fill-opacity="1" font-family="Malgun Gothic,Malgun Gothic_MSFontService,sans-serif" font-style="normal" font-variant="normal" font-weight="400" font-stretch="normal" font-size="64" text-anchor="start" direction="ltr" writing-mode="lr-tb" unicode-bidi="normal" text-decoration="none" transform="matrix(1 0 0 1 372.514 2039)">신임</text><text fill="#000000" fill-opacity="1" font-family="Malgun Gothic,Malgun Gothic_MSFontService,sans-serif" font-style="normal" font-variant="normal" font-weight="400" font-stretch="normal" font-size="64" text-anchor="start" direction="ltr" writing-mode="lr-tb" unicode-bidi="normal" text-decoration="none" transform="matrix(1 0 0 1 514.024 2039)">위원장</text><text fill="#000000" fill-opacity="1" font-family="Malgun Gothic,Malgun Gothic_MSFontService,sans-serif" font-style="normal" font-variant="normal" font-weight="400" font-stretch="normal" font-size="64" text-anchor="start" direction="ltr" writing-mode="lr-tb" unicode-bidi="normal" text-decoration="none" transform="matrix(1 0 0 1 719.701 2039)">선출</text><path d="M613.938 1774.5 613.938 1898.57 607.063 1898.57 607.062 1774.5ZM624.25 1893.98 610.5 1921.48 596.75 1893.98Z" fill="#156082" fill-rule="nonzero" fill-opacity="1"/></g></g></svg>