<svg width="3066" height="1861" xmlns="http://www.w3.org/2000/svg" xmlns:xlink="http://www.w3.org/1999/xlink" xml:space="preserve" overflow="hidden"><g transform="translate(-330 -192)"><g><rect x="335.5" y="199.5" width="3055" height="1849" stroke="#042433" stroke-width="6.875" stroke-linecap="butt" stroke-linejoin="miter" stroke-miterlimit="8" stroke-opacity="1" fill="#F2F2F2" fill-opacity="1"/><text fill="#000000" fill-opacity="1" font-family="Aptos,Aptos_MSFontService,sans-serif" font-style="normal" font-variant="normal" font-weight="700" font-stretch="normal" font-size="83" text-anchor="start" direction="ltr" writing-mode="lr-tb" unicode-bidi="normal" text-decoration="none" transform="matrix(1 0 0 1 1546.8 367)">1. </text><text fill="#000000" fill-opacity="1" font-family="Malgun Gothic,Malgun Gothic_MSFontService,sans-serif" font-style="normal" font-variant="normal" font-weight="700" font-stretch="normal" font-size="83" text-anchor="start" direction="ltr" writing-mode="lr-tb" unicode-bidi="normal" text-decoration="none" transform="matrix(1 0 0 1 1632.16 367)">제안</text><text fill="#000000" fill-opacity="1" font-family="Malgun Gothic,Malgun Gothic_MSFontService,sans-serif" font-style="normal" font-variant="normal" font-weight="700" font-stretch="normal" font-size="83" text-anchor="start" direction="ltr" writing-mode="lr-tb" unicode-bidi="normal" text-decoration="none" transform="matrix(1 0 0 1 1813.78 367)">및</text><text fill="#000000" fill-opacity="1" font-family="Malgun Gothic,Malgun Gothic_MSFontService,sans-serif" font-style="normal" font-variant="normal" font-weight="700" font-stretch="normal" font-size="83" text-anchor="start" direction="ltr" writing-mode="lr-tb" unicode-bidi="normal" text-decoration="none" transform="matrix(1 0 0 1 1912.89 367)">기획</text><text fill="#000000" fill-opacity="1" font-family="Malgun Gothic,Malgun Gothic_MSFontService,sans-serif" font-style="normal" font-variant="normal" font-weight="700" font-stretch="normal" font-size="83" text-anchor="start" direction="ltr" writing-mode="lr-tb" unicode-bidi="normal" text-decoration="none" transform="matrix(1 0 0 1 2094.5 367)">단계</text><path d="M461.5 460.834C461.5 442.977 475.977 428.5 493.834 428.5L1134.17 428.5C1152.02 428.5 1166.5 442.977 1166.5 460.834L1166.5 590.166C1166.5 608.024 1152.02 622.5 1134.17 622.5L493.834 622.5C475.977 622.5 461.5 608.024 461.5 590.166Z" stroke="#042433" stroke-width="6.875" stroke-linecap="butt" stroke-linejoin="miter" stroke-miterlimit="8" stroke-opacity="1" fill="#FFFFFF" fill-rule="evenodd" fill-opacity="1"/><text fill="#000000" fill-opacity="1" font-family="Malgun Gothic,Malgun Gothic_MSFontService,sans-serif" font-style="normal" font-variant="normal" font-weight="400" font-stretch="normal" font-size="64" text-anchor="start" direction="ltr" writing-mode="lr-tb" unicode-bidi="normal" text-decoration="none" transform="matrix(1 0 0 1 646.693 546)">제안서</text><text fill="#000000" fill-opacity="1" font-family="Malgun Gothic,Malgun Gothic_MSFontService,sans-serif" font-style="normal" font-variant="normal" font-weight="400" font-stretch="normal" font-size="64" text-anchor="start" direction="ltr" writing-mode="lr-tb" unicode-bidi="normal" text-decoration="none" transform="matrix(1 0 0 1 852.37 546)">작성</text><path d="M461.5 794.668C461.5 776.902 475.902 762.5 493.668 762.5L1134.33 762.5C1152.1 762.5 1166.5 776.902 1166.5 794.668L1166.5 923.333C1166.5 941.098 1152.1 955.5 1134.33 955.5L493.668 955.5C475.902 955.5 461.5 941.098 461.5 923.333Z" stroke="#042433" stroke-width="6.875" stroke-linecap="butt" stroke-linejoin="miter" stroke-miterlimit="8" stroke-opacity="1" fill="#FFFFFF" fill-rule="evenodd" fill-opacity="1"/><text fill="#000000" fill-opacity="1" font-family="Malgun Gothic,Malgun Gothic_MSFontService,sans-serif" font-style="normal" font-variant="normal" font-weight="400" font-stretch="normal" font-size="64" text-anchor="start" direction="ltr" writing-mode="lr-tb" unicode-bidi="normal" text-decoration="none" transform="matrix(1 0 0 1 511.772 880)">온라인</text><text fill="#000000" fill-opacity="1" font-family="Malgun Gothic,Malgun Gothic_MSFontService,sans-serif" font-style="normal" font-variant="normal" font-weight="400" font-stretch="normal" font-size="64" text-anchor="start" direction="ltr" writing-mode="lr-tb" unicode-bidi="normal" text-decoration="none" transform="matrix(1 0 0 1 717.449 880)">플랫폼에</text><text fill="#000000" fill-opacity="1" font-family="Malgun Gothic,Malgun Gothic_MSFontService,sans-serif" font-style="normal" font-variant="normal" font-weight="400" font-stretch="normal" font-size="64" text-anchor="start" direction="ltr" writing-mode="lr-tb" unicode-bidi="normal" text-decoration="none" transform="matrix(1 0 0 1 987.292 880)">공유</text><path d="M461.5 1127.67C461.5 1109.9 475.902 1095.5 493.668 1095.5L1134.33 1095.5C1152.1 1095.5 1166.5 1109.9 1166.5 1127.67L1166.5 1256.33C1166.5 1274.1 1152.1 1288.5 1134.33 1288.5L493.668 1288.5C475.902 1288.5 461.5 1274.1 461.5 1256.33Z" stroke="#042433" stroke-width="6.875" stroke-linecap="butt" stroke-linejoin="miter" stroke-miterlimit="8" stroke-opacity="1" fill="#FBFF5E" fill-rule="evenodd" fill-opacity="1"/><text fill="#000000" fill-opacity="1" font-family="Malgun Gothic,Malgun Gothic_MSFontService,sans-serif" font-style="normal" font-variant="normal" font-weight="400" font-stretch="normal" font-size="64" text-anchor="start" direction="ltr" writing-mode="lr-tb" unicode-bidi="normal" text-decoration="none" transform="matrix(1 0 0 1 521.225 1213)">담당</text><text fill="#000000" fill-opacity="1" font-family="Malgun Gothic,Malgun Gothic_MSFontService,sans-serif" font-style="normal" font-variant="normal" font-weight="400" font-stretch="normal" font-size="64" text-anchor="start" direction="ltr" writing-mode="lr-tb" unicode-bidi="normal" text-decoration="none" transform="matrix(1 0 0 1 662.735 1213)">운영</text><text fill="#000000" fill-opacity="1" font-family="Malgun Gothic,Malgun Gothic_MSFontService,sans-serif" font-style="normal" font-variant="normal" font-weight="400" font-stretch="normal" font-size="64" text-anchor="start" direction="ltr" writing-mode="lr-tb" unicode-bidi="normal" text-decoration="none" transform="matrix(1 0 0 1 804.245 1213)">위원</text><text fill="#000000" fill-opacity="1" font-family="Malgun Gothic,Malgun Gothic_MSFontService,sans-serif" font-style="normal" font-variant="normal" font-weight="400" font-stretch="normal" font-size="64" text-anchor="start" direction="ltr" writing-mode="lr-tb" unicode-bidi="normal" text-decoration="none" transform="matrix(1 0 0 1 945.756 1213)">선정</text><text fill="#000000" fill-opacity="1" font-family="Aptos,Aptos_MSFontService,sans-serif" font-style="normal" font-variant="normal" font-weight="400" font-stretch="normal" font-size="64" text-anchor="start" direction="ltr" writing-mode="lr-tb" unicode-bidi="normal" text-decoration="none" transform="matrix(1 0 0 1 1074.09 1213)">?</text><path d="M461.5 1461.67C461.5 1443.9 475.902 1429.5 493.668 1429.5L1134.33 1429.5C1152.1 1429.5 1166.5 1443.9 1166.5 1461.67L1166.5 1590.33C1166.5 1608.1 1152.1 1622.5 1134.33 1622.5L493.668 1622.5C475.902 1622.5 461.5 1608.1 461.5 1590.33Z" stroke="#042433" stroke-width="6.875" stroke-linecap="butt" stroke-linejoin="miter" stroke-miterlimit="8" stroke-opacity="1" fill="#FFFFFF" fill-rule="evenodd" fill-opacity="1"/><text fill="#000000" fill-opacity="1" font-family="Malgun Gothic,Malgun Gothic_MSFontService,sans-serif" font-style="normal" font-variant="normal" font-weight="400" font-stretch="normal" font-size="64" text-anchor="start" direction="ltr" writing-mode="lr-tb" unicode-bidi="normal" text-decoration="none" transform="matrix(1 0 0 1 543.855 1547)">운영</text><text fill="#000000" fill-opacity="1" font-family="Malgun Gothic,Malgun Gothic_MSFontService,sans-serif" font-style="normal" font-variant="normal" font-weight="400" font-stretch="normal" font-size="64" text-anchor="start" direction="ltr" writing-mode="lr-tb" unicode-bidi="normal" text-decoration="none" transform="matrix(1 0 0 1 685.365 1547)">위원회에</text><text fill="#000000" fill-opacity="1" font-family="Malgun Gothic,Malgun Gothic_MSFontService,sans-serif" font-style="normal" font-variant="normal" font-weight="400" font-stretch="normal" font-size="64" text-anchor="start" direction="ltr" writing-mode="lr-tb" unicode-bidi="normal" text-decoration="none" transform="matrix(1 0 0 1 955.209 1547)">보고</text><path d="M461.5 1794.67C461.5 1776.9 475.902 1762.5 493.668 1762.5L1134.33 1762.5C1152.1 1762.5 1166.5 1776.9 1166.5 1794.67L1166.5 1923.33C1166.5 1941.1 1152.1 1955.5 1134.33 1955.5L493.668 1955.5C475.902 1955.5 461.5 1941.1 461.5 1923.33Z" stroke="#042433" stroke-width="6.875" stroke-linecap="butt" stroke-linejoin="miter" stroke-miterlimit="8" stroke-opacity="1" fill="#FFFFFF" fill-rule="evenodd" fill-opacity="1"/><text fill="#000000" fill-opacity="1" font-family="Malgun Gothic,Malgun Gothic_MSFontService,sans-serif" font-style="normal" font-variant="normal" font-weight="400" font-stretch="normal" font-size="64" text-anchor="start" direction="ltr" writing-mode="lr-tb" unicode-bidi="normal" text-decoration="none" transform="matrix(1 0 0 1 646.693 1880)">기획서</text><text fill="#000000" fill-opacity="1" font-family="Malgun Gothic,Malgun Gothic_MSFontService,sans-serif" font-style="normal" font-variant="normal" font-weight="400" font-stretch="normal" font-size="64" text-anchor="start" direction="ltr" writing-mode="lr-tb" unicode-bidi="normal" text-decoration="none" transform="matrix(1 0 0 1 852.37 1880)">작성</text><path d="M817.937 622.5 817.938 739.921 811.063 739.921 811.062 622.5ZM828.25 735.338 814.5 762.838 800.75 735.338Z" fill="#156082" fill-rule="nonzero" fill-opacity="1"/><path d="M817.937 955.5 817.938 1072.92 811.063 1072.92 811.062 955.5ZM828.25 1068.34 814.5 1095.84 800.75 1068.34Z" fill="#156082" fill-rule="nonzero" fill-opacity="1"/><path d="M817.937 1288.5 817.938 1405.92 811.063 1405.92 811.062 1288.5ZM828.25 1401.34 814.5 1428.84 800.75 1401.34Z" fill="#156082" fill-rule="nonzero" fill-opacity="1"/><path d="M817.937 1622.5 817.938 1739.92 811.063 1739.92 811.062 1622.5ZM828.25 1735.34 814.5 1762.84 800.75 1735.34Z" fill="#156082" fill-rule="nonzero" fill-opacity="1"/><rect x="1293.5" y="932.5" width="2039" height="1053" stroke="#042433" stroke-width="6.875" stroke-linecap="butt" stroke-linejoin="miter" stroke-miterlimit="8" stroke-opacity="1" fill="#BFBFBF" fill-opacity="1"/><path d="M1551.5 1127.67C1551.5 1109.9 1565.9 1095.5 1583.67 1095.5L2224.33 1095.5C2242.1 1095.5 2256.5 1109.9 2256.5 1127.67L2256.5 1256.33C2256.5 1274.1 2242.1 1288.5 2224.33 1288.5L1583.67 1288.5C1565.9 1288.5 1551.5 1274.1 1551.5 1256.33Z" stroke="#042433" stroke-width="6.875" stroke-linecap="butt" stroke-linejoin="miter" stroke-miterlimit="8" stroke-opacity="1" fill="#FFFFFF" fill-rule="evenodd" fill-opacity="1"/><text fill="#000000" fill-opacity="1" font-family="Malgun Gothic,Malgun Gothic_MSFontService,sans-serif" font-style="normal" font-variant="normal" font-weight="400" font-stretch="normal" font-size="64" text-anchor="start" direction="ltr" writing-mode="lr-tb" unicode-bidi="normal" text-decoration="none" transform="matrix(1 0 0 1 1742.73 1175)">위원장에게</text><text fill="#000000" fill-opacity="1" font-family="Malgun Gothic,Malgun Gothic_MSFontService,sans-serif" font-style="normal" font-variant="normal" font-weight="400" font-stretch="normal" font-size="64" text-anchor="start" direction="ltr" writing-mode="lr-tb" unicode-bidi="normal" text-decoration="none" transform="matrix(1 0 0 1 1697.47 1252)">직접</text><text fill="#000000" fill-opacity="1" font-family="Malgun Gothic,Malgun Gothic_MSFontService,sans-serif" font-style="normal" font-variant="normal" font-weight="400" font-stretch="normal" font-size="64" text-anchor="start" direction="ltr" writing-mode="lr-tb" unicode-bidi="normal" text-decoration="none" transform="matrix(1 0 0 1 1838.98 1252)">제안</text><text fill="#000000" fill-opacity="1" font-family="Malgun Gothic,Malgun Gothic_MSFontService,sans-serif" font-style="normal" font-variant="normal" font-weight="400" font-stretch="normal" font-size="64" text-anchor="start" direction="ltr" writing-mode="lr-tb" unicode-bidi="normal" text-decoration="none" transform="matrix(1 0 0 1 1980.49 1252)">가능</text><text fill="#000000" fill-opacity="1" font-family="Malgun Gothic,Malgun Gothic_MSFontService,sans-serif" font-style="normal" font-variant="normal" font-weight="700" font-stretch="normal" font-size="64" text-anchor="start" direction="ltr" writing-mode="lr-tb" unicode-bidi="normal" text-decoration="none" transform="matrix(1 0 0 1 2145.25 1034)">패스트</text><text fill="#000000" fill-opacity="1" font-family="Malgun Gothic,Malgun Gothic_MSFontService,sans-serif" font-style="normal" font-variant="normal" font-weight="700" font-stretch="normal" font-size="64" text-anchor="start" direction="ltr" writing-mode="lr-tb" unicode-bidi="normal" text-decoration="none" transform="matrix(1 0 0 1 2350.93 1034)">트랙</text><path d="M1551.5 1461.67C1551.5 1443.9 1565.9 1429.5 1583.67 1429.5L2224.33 1429.5C2242.1 1429.5 2256.5 1443.9 2256.5 1461.67L2256.5 1590.33C2256.5 1608.1 2242.1 1622.5 2224.33 1622.5L1583.67 1622.5C1565.9 1622.5 1551.5 1608.1 1551.5 1590.33Z" stroke="#042433" stroke-width="6.875" stroke-linecap="butt" stroke-linejoin="miter" stroke-miterlimit="8" stroke-opacity="1" fill="#FBFF5E" fill-rule="evenodd" fill-opacity="1"/><text fill="#000000" fill-opacity="1" font-family="Malgun Gothic,Malgun Gothic_MSFontService,sans-serif" font-style="normal" font-variant="normal" font-weight="400" font-stretch="normal" font-size="64" text-anchor="start" direction="ltr" writing-mode="lr-tb" unicode-bidi="normal" text-decoration="none" transform="matrix(1 0 0 1 1720.1 1547)">위원장</text><text fill="#000000" fill-opacity="1" font-family="Malgun Gothic,Malgun Gothic_MSFontService,sans-serif" font-style="normal" font-variant="normal" font-weight="400" font-stretch="normal" font-size="64" text-anchor="start" direction="ltr" writing-mode="lr-tb" unicode-bidi="normal" text-decoration="none" transform="matrix(1 0 0 1 1925.78 1547)">승인</text><text fill="#000000" fill-opacity="1" font-family="Aptos,Aptos_MSFontService,sans-serif" font-style="normal" font-variant="normal" font-weight="400" font-stretch="normal" font-size="64" text-anchor="start" direction="ltr" writing-mode="lr-tb" unicode-bidi="normal" text-decoration="none" transform="matrix(1 0 0 1 2054.11 1547)">?</text><path d="M1551.5 1792.67C1551.5 1774.9 1565.9 1760.5 1583.67 1760.5L2224.33 1760.5C2242.1 1760.5 2256.5 1774.9 2256.5 1792.67L2256.5 1921.33C2256.5 1939.1 2242.1 1953.5 2224.33 1953.5L1583.67 1953.5C1565.9 1953.5 1551.5 1939.1 1551.5 1921.33Z" stroke="#042433" stroke-width="6.875" stroke-linecap="butt" stroke-linejoin="miter" stroke-miterlimit="8" stroke-opacity="1" fill="#FFFFFF" fill-rule="evenodd" fill-opacity="1"/><text fill="#000000" fill-opacity="1" font-family="Malgun Gothic,Malgun Gothic_MSFontService,sans-serif" font-style="normal" font-variant="normal" font-weight="400" font-stretch="normal" font-size="64" text-anchor="start" direction="ltr" writing-mode="lr-tb" unicode-bidi="normal" text-decoration="none" transform="matrix(1 0 0 1 1774.83 1840)">위원장이</text><text fill="#000000" fill-opacity="1" font-family="Malgun Gothic,Malgun Gothic_MSFontService,sans-serif" font-style="normal" font-variant="normal" font-weight="400" font-stretch="normal" font-size="64" text-anchor="start" direction="ltr" writing-mode="lr-tb" unicode-bidi="normal" text-decoration="none" transform="matrix(1 0 0 1 1626.72 1917)">담당</text><text fill="#000000" fill-opacity="1" font-family="Malgun Gothic,Malgun Gothic_MSFontService,sans-serif" font-style="normal" font-variant="normal" font-weight="400" font-stretch="normal" font-size="64" text-anchor="start" direction="ltr" writing-mode="lr-tb" unicode-bidi="normal" text-decoration="none" transform="matrix(1 0 0 1 1768.23 1917)">운영</text><text fill="#000000" fill-opacity="1" font-family="Malgun Gothic,Malgun Gothic_MSFontService,sans-serif" font-style="normal" font-variant="normal" font-weight="400" font-stretch="normal" font-size="64" text-anchor="start" direction="ltr" writing-mode="lr-tb" unicode-bidi="normal" text-decoration="none" transform="matrix(1 0 0 1 1909.74 1917)">위원</text><text fill="#000000" fill-opacity="1" font-family="Malgun Gothic,Malgun Gothic_MSFontService,sans-serif" font-style="normal" font-variant="normal" font-weight="400" font-stretch="normal" font-size="64" text-anchor="start" direction="ltr" writing-mode="lr-tb" unicode-bidi="normal" text-decoration="none" transform="matrix(1 0 0 1 2051.25 1917)">선정</text><path d="M2583.5 1461.67C2583.5 1443.9 2597.9 1429.5 2615.67 1429.5L3257.33 1429.5C3275.1 1429.5 3289.5 1443.9 3289.5 1461.67L3289.5 1590.33C3289.5 1608.1 3275.1 1622.5 3257.33 1622.5L2615.67 1622.5C2597.9 1622.5 2583.5 1608.1 2583.5 1590.33Z" stroke="#042433" stroke-width="6.875" stroke-linecap="butt" stroke-linejoin="miter" stroke-miterlimit="8" stroke-opacity="1" fill="#FFFFFF" fill-rule="evenodd" fill-opacity="1"/><text fill="#000000" fill-opacity="1" font-family="Malgun Gothic,Malgun Gothic_MSFontService,sans-serif" font-style="normal" font-variant="normal" font-weight="400" font-stretch="normal" font-size="64" text-anchor="start" direction="ltr" writing-mode="lr-tb" unicode-bidi="normal" text-decoration="none" transform="matrix(1 0 0 1 2801.17 1547)">제안</text><text fill="#000000" fill-opacity="1" font-family="Malgun Gothic,Malgun Gothic_MSFontService,sans-serif" font-style="normal" font-variant="normal" font-weight="400" font-stretch="normal" font-size="64" text-anchor="start" direction="ltr" writing-mode="lr-tb" unicode-bidi="normal" text-decoration="none" transform="matrix(1 0 0 1 2942.68 1547)">소멸</text><path d="M1166.5 1189.06 1527.83 1189.06 1527.83 1195.94 1166.5 1195.94ZM1523.25 1178.75 1550.75 1192.5 1523.25 1206.25Z" fill="#156082" fill-rule="nonzero" fill-opacity="1"/><path d="M1906.94 1288.5 1906.94 1405.92 1900.06 1405.92 1900.06 1288.5ZM1917.25 1401.34 1903.5 1428.84 1889.75 1401.34Z" fill="#156082" fill-rule="nonzero" fill-opacity="1"/><path d="M2256.5 1522.06 2561.32 1522.06 2561.32 1528.94 2256.5 1528.94ZM2556.74 1511.75 2584.24 1525.5 2556.74 1539.25Z" fill="#156082" fill-rule="nonzero" fill-opacity="1"/><path d="M1906.94 1622.5 1906.94 1738.21 1900.06 1738.21 1900.06 1622.5ZM1917.25 1733.63 1903.5 1761.13 1889.75 1733.63Z" fill="#156082" fill-rule="nonzero" fill-opacity="1"/><path d="M0.0152775-3.43747 361.345-1.83157 361.315 5.04336-0.0152775 3.43747ZM356.808-12.1643 384.246 1.70774 356.686 15.3354Z" fill="#156082" fill-rule="nonzero" fill-opacity="1" transform="matrix(-1 0 0 1 1550.75 1857.5)"/><text fill="#000000" fill-opacity="1" font-family="Malgun Gothic,Malgun Gothic_MSFontService,sans-serif" font-style="normal" font-variant="normal" font-weight="400" font-stretch="normal" font-size="55" text-anchor="start" direction="ltr" writing-mode="lr-tb" unicode-bidi="normal" text-decoration="none" transform="matrix(1 0 0 1 863.049 1383)">예</text><text fill="#000000" fill-opacity="1" font-family="Malgun Gothic,Malgun Gothic_MSFontService,sans-serif" font-style="normal" font-variant="normal" font-weight="400" font-stretch="normal" font-size="55" text-anchor="start" direction="ltr" writing-mode="lr-tb" unicode-bidi="normal" text-decoration="none" transform="matrix(1 0 0 1 1952.5 1716)">예</text><text fill="#000000" fill-opacity="1" font-family="Malgun Gothic,Malgun Gothic_MSFontService,sans-serif" font-style="normal" font-variant="normal" font-weight="400" font-stretch="normal" font-size="55" text-anchor="start" direction="ltr" writing-mode="lr-tb" unicode-bidi="normal" text-decoration="none" transform="matrix(1 0 0 1 1316.61 1167)">아니오</text><text fill="#000000" fill-opacity="1" font-family="Malgun Gothic,Malgun Gothic_MSFontService,sans-serif" font-style="normal" font-variant="normal" font-weight="400" font-stretch="normal" font-size="55" text-anchor="start" direction="ltr" writing-mode="lr-tb" unicode-bidi="normal" text-decoration="none" transform="matrix(1 0 0 1 2343.9 1500)">아니오</text></g></g></svg>